
<svg xmlns="http://www.w3.org/2000/svg" width="16" height="16" viewBox="0 0 16 16" fill="none">
  <path d="M8 6.4V9.6H12.4C12.2 10.6 11.6 11.4 10.7 12L13.3 14C14.8 12.6 15.6 10.6 15.6 8.2C15.6 7.6 15.6 7 15.5 6.4H8Z" fill="#4285F4"/>
  <path d="M8 16C10.2 16 12.1 15.3 13.3 14L10.7 12C10 12.5 9.1 12.8 8 12.8C5.9 12.8 4.1 11.4 3.5 9.6H0.8V11.7C2 14.3 4.8 16 8 16Z" fill="#34A853"/>
  <path d="M3.5 9.6C3.3 9.1 3.2 8.6 3.2 8C3.2 7.4 3.3 6.9 3.5 6.4V4.3H0.8C0.3 5.4 0 6.7 0 8C0 9.3 0.3 10.6 0.8 11.7L3.5 9.6Z" fill="#FBBC05"/>
  <path d="M8 3.2C9.2 3.2 10.2 3.6 11 4.3L13.3 2C11.9 0.6 10.1 0 8 0C4.8 0 2 1.7 0.8 4.3L3.5 6.4C4.1 4.6 5.9 3.2 8 3.2Z" fill="#EA4335"/>
</svg>
